<?xml version="1.0" encoding="UTF-8" standalone="no"?>
<!DOCTYPE svg PUBLIC "-//W3C//DTD SVG 1.1//EN"
 "http://www.w3.org/Graphics/SVG/1.1/DTD/svg11.dtd">
<!-- Generated by graphviz version 3.0.0 (20220226.1711)
 -->
<!-- Title: dependencies Pages: 1 -->
<svg width="2471pt" height="247pt"
 viewBox="0.00 0.00 2471.00 246.80" xmlns="http://www.w3.org/2000/svg" xmlns:xlink="http://www.w3.org/1999/xlink">
<g id="graph0" class="graph" transform="scale(1 1) rotate(0) translate(4 242.8)">
<title>dependencies</title>
<polygon fill="white" stroke="transparent" points="-4,4 -4,-242.8 2467,-242.8 2467,4 -4,4"/>
<text text-anchor="middle" x="1231.5" y="-8.2" font-family="sans-serif" font-size="14.00">dependencies</text>
<g id="clust1" class="cluster">
<title>cluster_AppModule</title>
<polygon fill="none" stroke="black" stroke-dasharray="1,5" points="8,-32.8 8,-230.8 2455,-230.8 2455,-32.8 8,-32.8"/>
</g>
<g id="clust18" class="cluster">
<title>cluster_AppModule_bootstrap</title>
<polygon fill="none" stroke="black" points="1180,-170.8 1180,-222.8 1304,-222.8 1304,-170.8 1180,-170.8"/>
</g>
<g id="clust19" class="cluster">
<title>cluster_AppModule_providers</title>
<polygon fill="none" stroke="black" points="2273,-40.8 2273,-92.8 2447,-92.8 2447,-40.8 2273,-40.8"/>
</g>
<g id="clust16" class="cluster">
<title>cluster_AppModule_imports</title>
<polygon fill="none" stroke="black" points="2121,-40.8 2121,-92.8 2265,-92.8 2265,-40.8 2121,-40.8"/>
</g>
<g id="clust2" class="cluster">
<title>cluster_AppModule_declarations</title>
<polygon fill="none" stroke="black" points="16,-40.8 16,-92.8 2113,-92.8 2113,-40.8 16,-40.8"/>
</g>
<!-- AppComponent -->
<g id="node1" class="node">
<title>AppComponent</title>
<polygon fill="#ffffb3" stroke="black" points="2104.94,-84.8 1999.06,-84.8 1999.06,-48.8 2104.94,-48.8 2104.94,-84.8"/>
<text text-anchor="middle" x="2052" y="-62.6" font-family="Times,serif" font-size="14.00">AppComponent</text>
</g>
<!-- AppModule -->
<g id="node14" class="node">
<title>AppModule</title>
<polygon fill="#8dd3c7" stroke="black" points="1283.66,-149.8 1280.66,-153.8 1259.66,-153.8 1256.66,-149.8 1200.34,-149.8 1200.34,-113.8 1283.66,-113.8 1283.66,-149.8"/>
<text text-anchor="middle" x="1242" y="-127.6" font-family="Times,serif" font-size="14.00">AppModule</text>
</g>
<!-- AppComponent&#45;&gt;AppModule -->
<g id="edge1" class="edge">
<title>AppComponent&#45;&gt;AppModule</title>
<path fill="none" stroke="black" d="M2052,-84.83C2052,-105.57 2052,-136.8 2052,-136.8 2052,-136.8 1293.84,-136.8 1293.84,-136.8"/>
<polygon fill="black" stroke="black" points="1293.84,-133.3 1283.84,-136.8 1293.84,-140.3 1293.84,-133.3"/>
</g>
<!-- DynamicChildLoaderDirective -->
<g id="node2" class="node">
<title>DynamicChildLoaderDirective</title>
<polygon fill="#ffffb3" stroke="black" points="1981.16,-84.8 1790.84,-84.8 1790.84,-48.8 1981.16,-48.8 1981.16,-84.8"/>
<text text-anchor="middle" x="1886" y="-62.6" font-family="Times,serif" font-size="14.00">DynamicChildLoaderDirective</text>
</g>
<!-- DynamicChildLoaderDirective&#45;&gt;AppModule -->
<g id="edge2" class="edge">
<title>DynamicChildLoaderDirective&#45;&gt;AppModule</title>
<path fill="none" stroke="black" d="M1886,-84.91C1886,-104.14 1886,-131.8 1886,-131.8 1886,-131.8 1293.76,-131.8 1293.76,-131.8"/>
<polygon fill="black" stroke="black" points="1293.76,-128.3 1283.76,-131.8 1293.76,-135.3 1293.76,-128.3"/>
</g>
<!-- GaugeComponent -->
<g id="node3" class="node">
<title>GaugeComponent</title>
<polygon fill="#ffffb3" stroke="black" points="1772.87,-84.8 1655.13,-84.8 1655.13,-48.8 1772.87,-48.8 1772.87,-84.8"/>
<text text-anchor="middle" x="1714" y="-62.6" font-family="Times,serif" font-size="14.00">GaugeComponent</text>
</g>
<!-- GaugeComponent&#45;&gt;AppModule -->
<g id="edge3" class="edge">
<title>GaugeComponent&#45;&gt;AppModule</title>
<path fill="none" stroke="black" d="M1714,-85.1C1714,-103.07 1714,-127.8 1714,-127.8 1714,-127.8 1293.89,-127.8 1293.89,-127.8"/>
<polygon fill="black" stroke="black" points="1293.89,-124.3 1283.89,-127.8 1293.89,-131.3 1293.89,-124.3"/>
</g>
<!-- HeaderComponent -->
<g id="node4" class="node">
<title>HeaderComponent</title>
<polygon fill="#ffffb3" stroke="black" points="1636.75,-84.8 1515.25,-84.8 1515.25,-48.8 1636.75,-48.8 1636.75,-84.8"/>
<text text-anchor="middle" x="1576" y="-62.6" font-family="Times,serif" font-size="14.00">HeaderComponent</text>
</g>
<!-- HeaderComponent&#45;&gt;AppModule -->
<g id="edge4" class="edge">
<title>HeaderComponent&#45;&gt;AppModule</title>
<path fill="none" stroke="black" d="M1576,-84.83C1576,-101.2 1576,-122.8 1576,-122.8 1576,-122.8 1293.96,-122.8 1293.96,-122.8"/>
<polygon fill="black" stroke="black" points="1293.96,-119.3 1283.96,-122.8 1293.96,-126.3 1293.96,-119.3"/>
</g>
<!-- HomeIndexComponent -->
<g id="node5" class="node">
<title>HomeIndexComponent</title>
<polygon fill="#ffffb3" stroke="black" points="1496.92,-84.8 1349.08,-84.8 1349.08,-48.8 1496.92,-48.8 1496.92,-84.8"/>
<text text-anchor="middle" x="1423" y="-62.6" font-family="Times,serif" font-size="14.00">HomeIndexComponent</text>
</g>
<!-- HomeIndexComponent&#45;&gt;AppModule -->
<g id="edge5" class="edge">
<title>HomeIndexComponent&#45;&gt;AppModule</title>
<path fill="none" stroke="black" d="M1423,-84.99C1423,-99.98 1423,-118.8 1423,-118.8 1423,-118.8 1293.98,-118.8 1293.98,-118.8"/>
<polygon fill="black" stroke="black" points="1293.98,-115.3 1283.98,-118.8 1293.98,-122.3 1293.98,-115.3"/>
</g>
<!-- IcfesModulesListComponent -->
<g id="node6" class="node">
<title>IcfesModulesListComponent</title>
<polygon fill="#ffffb3" stroke="black" points="1331.81,-84.8 1152.19,-84.8 1152.19,-48.8 1331.81,-48.8 1331.81,-84.8"/>
<text text-anchor="middle" x="1242" y="-62.6" font-family="Times,serif" font-size="14.00">IcfesModulesListComponent</text>
</g>
<!-- IcfesModulesListComponent&#45;&gt;AppModule -->
<g id="edge6" class="edge">
<title>IcfesModulesListComponent&#45;&gt;AppModule</title>
<path fill="none" stroke="black" d="M1242,-84.91C1242,-84.91 1242,-103.79 1242,-103.79"/>
<polygon fill="black" stroke="black" points="1238.5,-103.79 1242,-113.79 1245.5,-103.79 1238.5,-103.79"/>
</g>
<!-- IcfesTestComponent -->
<g id="node7" class="node">
<title>IcfesTestComponent</title>
<polygon fill="#ffffb3" stroke="black" points="1134.14,-84.8 1001.86,-84.8 1001.86,-48.8 1134.14,-48.8 1134.14,-84.8"/>
<text text-anchor="middle" x="1068" y="-62.6" font-family="Times,serif" font-size="14.00">IcfesTestComponent</text>
</g>
<!-- IcfesTestComponent&#45;&gt;AppModule -->
<g id="edge7" class="edge">
<title>IcfesTestComponent&#45;&gt;AppModule</title>
<path fill="none" stroke="black" d="M1068,-84.99C1068,-99.98 1068,-118.8 1068,-118.8 1068,-118.8 1190.32,-118.8 1190.32,-118.8"/>
<polygon fill="black" stroke="black" points="1190.32,-122.3 1200.32,-118.8 1190.32,-115.3 1190.32,-122.3"/>
</g>
<!-- LoginComponent -->
<g id="node8" class="node">
<title>LoginComponent</title>
<polygon fill="#ffffb3" stroke="black" points="983.27,-84.8 868.73,-84.8 868.73,-48.8 983.27,-48.8 983.27,-84.8"/>
<text text-anchor="middle" x="926" y="-62.6" font-family="Times,serif" font-size="14.00">LoginComponent</text>
</g>
<!-- LoginComponent&#45;&gt;AppModule -->
<g id="edge8" class="edge">
<title>LoginComponent&#45;&gt;AppModule</title>
<path fill="none" stroke="black" d="M926,-84.83C926,-101.2 926,-122.8 926,-122.8 926,-122.8 1190.04,-122.8 1190.04,-122.8"/>
<polygon fill="black" stroke="black" points="1190.04,-126.3 1200.04,-122.8 1190.04,-119.3 1190.04,-126.3"/>
</g>
<!-- MultipleSelectionQuestionComponent -->
<g id="node9" class="node">
<title>MultipleSelectionQuestionComponent</title>
<polygon fill="#ffffb3" stroke="black" points="851.2,-84.8 618.8,-84.8 618.8,-48.8 851.2,-48.8 851.2,-84.8"/>
<text text-anchor="middle" x="735" y="-62.6" font-family="Times,serif" font-size="14.00">MultipleSelectionQuestionComponent</text>
</g>
<!-- MultipleSelectionQuestionComponent&#45;&gt;AppModule -->
<g id="edge9" class="edge">
<title>MultipleSelectionQuestionComponent&#45;&gt;AppModule</title>
<path fill="none" stroke="black" d="M735,-85.1C735,-103.07 735,-127.8 735,-127.8 735,-127.8 1190.08,-127.8 1190.08,-127.8"/>
<polygon fill="black" stroke="black" points="1190.08,-131.3 1200.08,-127.8 1190.08,-124.3 1190.08,-131.3"/>
</g>
<!-- ProfileComponent -->
<g id="node10" class="node">
<title>ProfileComponent</title>
<polygon fill="#ffffb3" stroke="black" points="600.94,-84.8 481.06,-84.8 481.06,-48.8 600.94,-48.8 600.94,-84.8"/>
<text text-anchor="middle" x="541" y="-62.6" font-family="Times,serif" font-size="14.00">ProfileComponent</text>
</g>
<!-- ProfileComponent&#45;&gt;AppModule -->
<g id="edge10" class="edge">
<title>ProfileComponent&#45;&gt;AppModule</title>
<path fill="none" stroke="black" d="M541,-84.91C541,-104.14 541,-131.8 541,-131.8 541,-131.8 1190.25,-131.8 1190.25,-131.8"/>
<polygon fill="black" stroke="black" points="1190.25,-135.3 1200.25,-131.8 1190.25,-128.3 1190.25,-135.3"/>
</g>
<!-- SummaryTestComponent -->
<g id="node11" class="node">
<title>SummaryTestComponent</title>
<polygon fill="#ffffb3" stroke="black" points="462.88,-84.8 303.12,-84.8 303.12,-48.8 462.88,-48.8 462.88,-84.8"/>
<text text-anchor="middle" x="383" y="-62.6" font-family="Times,serif" font-size="14.00">SummaryTestComponent</text>
</g>
<!-- SummaryTestComponent&#45;&gt;AppModule -->
<g id="edge11" class="edge">
<title>SummaryTestComponent&#45;&gt;AppModule</title>
<path fill="none" stroke="black" d="M383,-84.83C383,-105.57 383,-136.8 383,-136.8 383,-136.8 1190.28,-136.8 1190.28,-136.8"/>
<polygon fill="black" stroke="black" points="1190.28,-140.3 1200.28,-136.8 1190.28,-133.3 1190.28,-140.3"/>
</g>
<!-- TestListComponent -->
<g id="node12" class="node">
<title>TestListComponent</title>
<polygon fill="#ffffb3" stroke="black" points="284.71,-84.8 157.29,-84.8 157.29,-48.8 284.71,-48.8 284.71,-84.8"/>
<text text-anchor="middle" x="221" y="-62.6" font-family="Times,serif" font-size="14.00">TestListComponent</text>
</g>
<!-- TestListComponent&#45;&gt;AppModule -->
<g id="edge12" class="edge">
<title>TestListComponent&#45;&gt;AppModule</title>
<path fill="none" stroke="black" d="M221,-85.09C221,-107.01 221,-140.8 221,-140.8 221,-140.8 1190.07,-140.8 1190.07,-140.8"/>
<polygon fill="black" stroke="black" points="1190.07,-144.3 1200.07,-140.8 1190.07,-137.3 1190.07,-144.3"/>
</g>
<!-- TimerComponent -->
<g id="node13" class="node">
<title>TimerComponent</title>
<polygon fill="#ffffb3" stroke="black" points="139.54,-84.8 24.46,-84.8 24.46,-48.8 139.54,-48.8 139.54,-84.8"/>
<text text-anchor="middle" x="82" y="-62.6" font-family="Times,serif" font-size="14.00">TimerComponent</text>
</g>
<!-- TimerComponent&#45;&gt;AppModule -->
<g id="edge13" class="edge">
<title>TimerComponent&#45;&gt;AppModule</title>
<path fill="none" stroke="black" d="M82,-85.12C82,-108.46 82,-145.8 82,-145.8 82,-145.8 1190.03,-145.8 1190.03,-145.8"/>
<polygon fill="black" stroke="black" points="1190.03,-149.3 1200.03,-145.8 1190.03,-142.3 1190.03,-149.3"/>
</g>
<!-- AppComponent  -->
<g id="node16" class="node">
<title>AppComponent </title>
<polygon fill="#80b1d3" stroke="black" points="1296.44,-214.8 1187.56,-214.8 1187.56,-178.8 1296.44,-178.8 1296.44,-214.8"/>
<text text-anchor="middle" x="1242" y="-192.6" font-family="Times,serif" font-size="14.00">AppComponent </text>
</g>
<!-- AppModule&#45;&gt;AppComponent  -->
<g id="edge15" class="edge">
<title>AppModule&#45;&gt;AppComponent </title>
<path fill="none" stroke="black" stroke-dasharray="1,5" d="M1242,-149.91C1242,-149.91 1242,-168.79 1242,-168.79"/>
<polygon fill="black" stroke="black" points="1238.5,-168.79 1242,-178.79 1245.5,-168.79 1238.5,-168.79"/>
</g>
<!-- AppRoutingModule -->
<g id="node15" class="node">
<title>AppRoutingModule</title>
<polygon fill="#8dd3c7" stroke="black" points="2257.28,-84.8 2254.28,-88.8 2233.28,-88.8 2230.28,-84.8 2128.72,-84.8 2128.72,-48.8 2257.28,-48.8 2257.28,-84.8"/>
<text text-anchor="middle" x="2193" y="-62.6" font-family="Times,serif" font-size="14.00">AppRoutingModule</text>
</g>
<!-- AppRoutingModule&#45;&gt;AppModule -->
<g id="edge14" class="edge">
<title>AppRoutingModule&#45;&gt;AppModule</title>
<path fill="none" stroke="black" d="M2193,-85.09C2193,-107.01 2193,-140.8 2193,-140.8 2193,-140.8 1293.78,-140.8 1293.78,-140.8"/>
<polygon fill="black" stroke="black" points="1293.78,-137.3 1283.78,-140.8 1293.78,-144.3 1293.78,-137.3"/>
</g>
<!-- QuestionsService -->
<g id="node17" class="node">
<title>QuestionsService</title>
<ellipse fill="#fdb462" stroke="black" cx="2360" cy="-66.8" rx="78.74" ry="18"/>
<text text-anchor="middle" x="2360" y="-62.6" font-family="Times,serif" font-size="14.00">QuestionsService</text>
</g>
<!-- QuestionsService&#45;&gt;AppModule -->
<g id="edge16" class="edge">
<title>QuestionsService&#45;&gt;AppModule</title>
<path fill="none" stroke="black" d="M2360,-85.12C2360,-108.46 2360,-145.8 2360,-145.8 2360,-145.8 1293.79,-145.8 1293.79,-145.8"/>
<polygon fill="black" stroke="black" points="1293.79,-142.3 1283.79,-145.8 1293.79,-149.3 1293.79,-142.3"/>
</g>
</g>
</svg>
