<?xml version="1.0" encoding="UTF-8" standalone="no"?>
<!DOCTYPE svg PUBLIC "-//W3C//DTD SVG 1.1//EN"
 "http://www.w3.org/Graphics/SVG/1.1/DTD/svg11.dtd">
<!-- Generated by graphviz version 3.0.0 (20220226.1711)
 -->
<!-- Title: dependencies Pages: 1 -->
<svg width="2471pt" height="247pt"
 viewBox="0.00 0.00 2471.00 246.80" xmlns="http://www.w3.org/2000/svg" xmlns:xlink="http://www.w3.org/1999/xlink">
<g id="graph0" class="graph" transform="scale(1 1) rotate(0) translate(4 242.8)">
<title>dependencies</title>
<polygon fill="white" stroke="transparent" points="-4,4 -4,-242.8 2467,-242.8 2467,4 -4,4"/>
<text text-anchor="middle" x="1231.5" y="-8.2" font-family="sans-serif" font-size="14.00">dependencies</text>
<g id="clust1" class="cluster">
<title>cluster_AppModule</title>
<polygon fill="none" stroke="black" stroke-dasharray="1,5" points="8,-32.8 8,-230.8 2455,-230.8 2455,-32.8 8,-32.8"/>
</g>
<g id="clust2" class="cluster">
<title>cluster_AppModule_declarations</title>
<polygon fill="none" stroke="black" points="350,-40.8 350,-92.8 2447,-92.8 2447,-40.8 350,-40.8"/>
</g>
<g id="clust16" class="cluster">
<title>cluster_AppModule_imports</title>
<polygon fill="none" stroke="black" points="198,-40.8 198,-92.8 342,-92.8 342,-40.8 198,-40.8"/>
</g>
<g id="clust18" class="cluster">
<title>cluster_AppModule_bootstrap</title>
<polygon fill="none" stroke="black" points="1198,-170.8 1198,-222.8 1322,-222.8 1322,-170.8 1198,-170.8"/>
</g>
<g id="clust19" class="cluster">
<title>cluster_AppModule_providers</title>
<polygon fill="none" stroke="black" points="16,-40.8 16,-92.8 190,-92.8 190,-40.8 16,-40.8"/>
</g>
<!-- AppComponent -->
<g id="node1" class="node">
<title>AppComponent</title>
<polygon fill="#ffffb3" stroke="black" points="2438.94,-84.8 2333.06,-84.8 2333.06,-48.8 2438.94,-48.8 2438.94,-84.8"/>
<text text-anchor="middle" x="2386" y="-62.6" font-family="Times,serif" font-size="14.00">AppComponent</text>
</g>
<!-- AppModule -->
<g id="node14" class="node">
<title>AppModule</title>
<polygon fill="#8dd3c7" stroke="black" points="1301.66,-149.8 1298.66,-153.8 1277.66,-153.8 1274.66,-149.8 1218.34,-149.8 1218.34,-113.8 1301.66,-113.8 1301.66,-149.8"/>
<text text-anchor="middle" x="1260" y="-127.6" font-family="Times,serif" font-size="14.00">AppModule</text>
</g>
<!-- AppComponent&#45;&gt;AppModule -->
<g id="edge1" class="edge">
<title>AppComponent&#45;&gt;AppModule</title>
<path fill="none" stroke="black" d="M2386,-85.12C2386,-108.46 2386,-145.8 2386,-145.8 2386,-145.8 1311.75,-145.8 1311.75,-145.8"/>
<polygon fill="black" stroke="black" points="1311.75,-142.3 1301.75,-145.8 1311.75,-149.3 1311.75,-142.3"/>
</g>
<!-- DynamicChildLoaderDirective -->
<g id="node2" class="node">
<title>DynamicChildLoaderDirective</title>
<polygon fill="#ffffb3" stroke="black" points="2315.16,-84.8 2124.84,-84.8 2124.84,-48.8 2315.16,-48.8 2315.16,-84.8"/>
<text text-anchor="middle" x="2220" y="-62.6" font-family="Times,serif" font-size="14.00">DynamicChildLoaderDirective</text>
</g>
<!-- DynamicChildLoaderDirective&#45;&gt;AppModule -->
<g id="edge2" class="edge">
<title>DynamicChildLoaderDirective&#45;&gt;AppModule</title>
<path fill="none" stroke="black" d="M2220,-85.09C2220,-107.01 2220,-140.8 2220,-140.8 2220,-140.8 1311.87,-140.8 1311.87,-140.8"/>
<polygon fill="black" stroke="black" points="1311.87,-137.3 1301.87,-140.8 1311.87,-144.3 1311.87,-137.3"/>
</g>
<!-- GaugeComponent -->
<g id="node3" class="node">
<title>GaugeComponent</title>
<polygon fill="#ffffb3" stroke="black" points="2106.87,-84.8 1989.13,-84.8 1989.13,-48.8 2106.87,-48.8 2106.87,-84.8"/>
<text text-anchor="middle" x="2048" y="-62.6" font-family="Times,serif" font-size="14.00">GaugeComponent</text>
</g>
<!-- GaugeComponent&#45;&gt;AppModule -->
<g id="edge3" class="edge">
<title>GaugeComponent&#45;&gt;AppModule</title>
<path fill="none" stroke="black" d="M2048,-84.83C2048,-105.57 2048,-136.8 2048,-136.8 2048,-136.8 1311.81,-136.8 1311.81,-136.8"/>
<polygon fill="black" stroke="black" points="1311.81,-133.3 1301.81,-136.8 1311.81,-140.3 1311.81,-133.3"/>
</g>
<!-- HeaderComponent -->
<g id="node4" class="node">
<title>HeaderComponent</title>
<polygon fill="#ffffb3" stroke="black" points="1970.75,-84.8 1849.25,-84.8 1849.25,-48.8 1970.75,-48.8 1970.75,-84.8"/>
<text text-anchor="middle" x="1910" y="-62.6" font-family="Times,serif" font-size="14.00">HeaderComponent</text>
</g>
<!-- HeaderComponent&#45;&gt;AppModule -->
<g id="edge4" class="edge">
<title>HeaderComponent&#45;&gt;AppModule</title>
<path fill="none" stroke="black" d="M1910,-84.91C1910,-104.14 1910,-131.8 1910,-131.8 1910,-131.8 1312.15,-131.8 1312.15,-131.8"/>
<polygon fill="black" stroke="black" points="1312.15,-128.3 1302.15,-131.8 1312.15,-135.3 1312.15,-128.3"/>
</g>
<!-- HomeIndexComponent -->
<g id="node5" class="node">
<title>HomeIndexComponent</title>
<polygon fill="#ffffb3" stroke="black" points="1830.92,-84.8 1683.08,-84.8 1683.08,-48.8 1830.92,-48.8 1830.92,-84.8"/>
<text text-anchor="middle" x="1757" y="-62.6" font-family="Times,serif" font-size="14.00">HomeIndexComponent</text>
</g>
<!-- HomeIndexComponent&#45;&gt;AppModule -->
<g id="edge5" class="edge">
<title>HomeIndexComponent&#45;&gt;AppModule</title>
<path fill="none" stroke="black" d="M1757,-85.1C1757,-103.07 1757,-127.8 1757,-127.8 1757,-127.8 1311.95,-127.8 1311.95,-127.8"/>
<polygon fill="black" stroke="black" points="1311.95,-124.3 1301.95,-127.8 1311.95,-131.3 1311.95,-124.3"/>
</g>
<!-- IcfesModulesListComponent -->
<g id="node6" class="node">
<title>IcfesModulesListComponent</title>
<polygon fill="#ffffb3" stroke="black" points="1665.81,-84.8 1486.19,-84.8 1486.19,-48.8 1665.81,-48.8 1665.81,-84.8"/>
<text text-anchor="middle" x="1576" y="-62.6" font-family="Times,serif" font-size="14.00">IcfesModulesListComponent</text>
</g>
<!-- IcfesModulesListComponent&#45;&gt;AppModule -->
<g id="edge6" class="edge">
<title>IcfesModulesListComponent&#45;&gt;AppModule</title>
<path fill="none" stroke="black" d="M1576,-84.83C1576,-101.2 1576,-122.8 1576,-122.8 1576,-122.8 1311.96,-122.8 1311.96,-122.8"/>
<polygon fill="black" stroke="black" points="1311.96,-119.3 1301.96,-122.8 1311.96,-126.3 1311.96,-119.3"/>
</g>
<!-- IcfesTestComponent -->
<g id="node7" class="node">
<title>IcfesTestComponent</title>
<polygon fill="#ffffb3" stroke="black" points="1468.14,-84.8 1335.86,-84.8 1335.86,-48.8 1468.14,-48.8 1468.14,-84.8"/>
<text text-anchor="middle" x="1402" y="-62.6" font-family="Times,serif" font-size="14.00">IcfesTestComponent</text>
</g>
<!-- IcfesTestComponent&#45;&gt;AppModule -->
<g id="edge7" class="edge">
<title>IcfesTestComponent&#45;&gt;AppModule</title>
<path fill="none" stroke="black" d="M1402,-84.99C1402,-99.98 1402,-118.8 1402,-118.8 1402,-118.8 1311.84,-118.8 1311.84,-118.8"/>
<polygon fill="black" stroke="black" points="1311.84,-115.3 1301.84,-118.8 1311.84,-122.3 1311.84,-115.3"/>
</g>
<!-- LoginComponent -->
<g id="node8" class="node">
<title>LoginComponent</title>
<polygon fill="#ffffb3" stroke="black" points="1317.27,-84.8 1202.73,-84.8 1202.73,-48.8 1317.27,-48.8 1317.27,-84.8"/>
<text text-anchor="middle" x="1260" y="-62.6" font-family="Times,serif" font-size="14.00">LoginComponent</text>
</g>
<!-- LoginComponent&#45;&gt;AppModule -->
<g id="edge8" class="edge">
<title>LoginComponent&#45;&gt;AppModule</title>
<path fill="none" stroke="black" d="M1260,-84.91C1260,-84.91 1260,-103.79 1260,-103.79"/>
<polygon fill="black" stroke="black" points="1256.5,-103.79 1260,-113.79 1263.5,-103.79 1256.5,-103.79"/>
</g>
<!-- MultipleSelectionQuestionComponent -->
<g id="node9" class="node">
<title>MultipleSelectionQuestionComponent</title>
<polygon fill="#ffffb3" stroke="black" points="1185.2,-84.8 952.8,-84.8 952.8,-48.8 1185.2,-48.8 1185.2,-84.8"/>
<text text-anchor="middle" x="1069" y="-62.6" font-family="Times,serif" font-size="14.00">MultipleSelectionQuestionComponent</text>
</g>
<!-- MultipleSelectionQuestionComponent&#45;&gt;AppModule -->
<g id="edge9" class="edge">
<title>MultipleSelectionQuestionComponent&#45;&gt;AppModule</title>
<path fill="none" stroke="black" d="M1069,-84.99C1069,-99.98 1069,-118.8 1069,-118.8 1069,-118.8 1208.08,-118.8 1208.08,-118.8"/>
<polygon fill="black" stroke="black" points="1208.08,-122.3 1218.08,-118.8 1208.08,-115.3 1208.08,-122.3"/>
</g>
<!-- ProfileComponent -->
<g id="node10" class="node">
<title>ProfileComponent</title>
<polygon fill="#ffffb3" stroke="black" points="934.94,-84.8 815.06,-84.8 815.06,-48.8 934.94,-48.8 934.94,-84.8"/>
<text text-anchor="middle" x="875" y="-62.6" font-family="Times,serif" font-size="14.00">ProfileComponent</text>
</g>
<!-- ProfileComponent&#45;&gt;AppModule -->
<g id="edge10" class="edge">
<title>ProfileComponent&#45;&gt;AppModule</title>
<path fill="none" stroke="black" d="M875,-84.83C875,-101.2 875,-122.8 875,-122.8 875,-122.8 1208.07,-122.8 1208.07,-122.8"/>
<polygon fill="black" stroke="black" points="1208.07,-126.3 1218.07,-122.8 1208.07,-119.3 1208.07,-126.3"/>
</g>
<!-- SummaryTestComponent -->
<g id="node11" class="node">
<title>SummaryTestComponent</title>
<polygon fill="#ffffb3" stroke="black" points="796.88,-84.8 637.12,-84.8 637.12,-48.8 796.88,-48.8 796.88,-84.8"/>
<text text-anchor="middle" x="717" y="-62.6" font-family="Times,serif" font-size="14.00">SummaryTestComponent</text>
</g>
<!-- SummaryTestComponent&#45;&gt;AppModule -->
<g id="edge11" class="edge">
<title>SummaryTestComponent&#45;&gt;AppModule</title>
<path fill="none" stroke="black" d="M717,-85.1C717,-103.07 717,-127.8 717,-127.8 717,-127.8 1208.29,-127.8 1208.29,-127.8"/>
<polygon fill="black" stroke="black" points="1208.29,-131.3 1218.29,-127.8 1208.29,-124.3 1208.29,-131.3"/>
</g>
<!-- TestListComponent -->
<g id="node12" class="node">
<title>TestListComponent</title>
<polygon fill="#ffffb3" stroke="black" points="618.71,-84.8 491.29,-84.8 491.29,-48.8 618.71,-48.8 618.71,-84.8"/>
<text text-anchor="middle" x="555" y="-62.6" font-family="Times,serif" font-size="14.00">TestListComponent</text>
</g>
<!-- TestListComponent&#45;&gt;AppModule -->
<g id="edge12" class="edge">
<title>TestListComponent&#45;&gt;AppModule</title>
<path fill="none" stroke="black" d="M555,-84.91C555,-104.14 555,-131.8 555,-131.8 555,-131.8 1208.27,-131.8 1208.27,-131.8"/>
<polygon fill="black" stroke="black" points="1208.27,-135.3 1218.27,-131.8 1208.27,-128.3 1208.27,-135.3"/>
</g>
<!-- TimerComponent -->
<g id="node13" class="node">
<title>TimerComponent</title>
<polygon fill="#ffffb3" stroke="black" points="473.54,-84.8 358.46,-84.8 358.46,-48.8 473.54,-48.8 473.54,-84.8"/>
<text text-anchor="middle" x="416" y="-62.6" font-family="Times,serif" font-size="14.00">TimerComponent</text>
</g>
<!-- TimerComponent&#45;&gt;AppModule -->
<g id="edge13" class="edge">
<title>TimerComponent&#45;&gt;AppModule</title>
<path fill="none" stroke="black" d="M416,-84.83C416,-105.57 416,-136.8 416,-136.8 416,-136.8 1208.15,-136.8 1208.15,-136.8"/>
<polygon fill="black" stroke="black" points="1208.15,-140.3 1218.15,-136.8 1208.15,-133.3 1208.15,-140.3"/>
</g>
<!-- AppComponent  -->
<g id="node16" class="node">
<title>AppComponent </title>
<polygon fill="#80b1d3" stroke="black" points="1314.44,-214.8 1205.56,-214.8 1205.56,-178.8 1314.44,-178.8 1314.44,-214.8"/>
<text text-anchor="middle" x="1260" y="-192.6" font-family="Times,serif" font-size="14.00">AppComponent </text>
</g>
<!-- AppModule&#45;&gt;AppComponent  -->
<g id="edge15" class="edge">
<title>AppModule&#45;&gt;AppComponent </title>
<path fill="none" stroke="black" stroke-dasharray="1,5" d="M1260,-149.91C1260,-149.91 1260,-168.79 1260,-168.79"/>
<polygon fill="black" stroke="black" points="1256.5,-168.79 1260,-178.79 1263.5,-168.79 1256.5,-168.79"/>
</g>
<!-- AppRoutingModule -->
<g id="node15" class="node">
<title>AppRoutingModule</title>
<polygon fill="#8dd3c7" stroke="black" points="334.28,-84.8 331.28,-88.8 310.28,-88.8 307.28,-84.8 205.72,-84.8 205.72,-48.8 334.28,-48.8 334.28,-84.8"/>
<text text-anchor="middle" x="270" y="-62.6" font-family="Times,serif" font-size="14.00">AppRoutingModule</text>
</g>
<!-- AppRoutingModule&#45;&gt;AppModule -->
<g id="edge14" class="edge">
<title>AppRoutingModule&#45;&gt;AppModule</title>
<path fill="none" stroke="black" d="M270,-85.09C270,-107.01 270,-140.8 270,-140.8 270,-140.8 1208.09,-140.8 1208.09,-140.8"/>
<polygon fill="black" stroke="black" points="1208.09,-144.3 1218.09,-140.8 1208.09,-137.3 1208.09,-144.3"/>
</g>
<!-- QuestionsService -->
<g id="node17" class="node">
<title>QuestionsService</title>
<ellipse fill="#fdb462" stroke="black" cx="103" cy="-66.8" rx="78.74" ry="18"/>
<text text-anchor="middle" x="103" y="-62.6" font-family="Times,serif" font-size="14.00">QuestionsService</text>
</g>
<!-- QuestionsService&#45;&gt;AppModule -->
<g id="edge16" class="edge">
<title>QuestionsService&#45;&gt;AppModule</title>
<path fill="none" stroke="black" d="M103,-85.12C103,-108.46 103,-145.8 103,-145.8 103,-145.8 1208.14,-145.8 1208.14,-145.8"/>
<polygon fill="black" stroke="black" points="1208.14,-149.3 1218.14,-145.8 1208.14,-142.3 1208.14,-149.3"/>
</g>
</g>
</svg>
